<?xml version="1.0" encoding="UTF-8"?>
<svg xmlns="http://www.w3.org/2000/svg" xmlns:xlink="http://www.w3.org/1999/xlink" width="16pt" height="16pt" viewBox="0 0 16 16" version="1.1">
<g id="surface1">
<path style=" stroke:none;fill-rule:nonzero;fill:rgb(23.137255%,34.901961%,59.607843%);fill-opacity:1;" d="M 2.398438 0 L 13.601562 0 C 14.925781 0 16 1.074219 16 2.398438 L 16 13.601562 C 16 14.925781 14.925781 16 13.601562 16 L 2.398438 16 C 1.074219 16 0 14.925781 0 13.601562 L 0 2.398438 C 0 1.074219 1.074219 0 2.398438 0 Z M 2.398438 0 "/>
<path style=" stroke:none;fill-rule:nonzero;fill:rgb(100%,100%,100%);fill-opacity:1;" d="M 10.3125 16 L 10.3125 10.0625 L 12.3125 10.0625 L 12.59375 7.75 L 10.3125 7.75 L 10.3125 6.28125 C 10.3125 5.59375 10.5 5.15625 11.46875 5.15625 L 12.6875 5.15625 L 12.6875 3.09375 C 12.46875 3.0625 11.75 3 10.90625 3 C 9.125 3 7.9375 4.0625 7.9375 6.0625 L 7.9375 7.75 L 5.9375 7.75 L 5.9375 10.0625 L 7.9375 10.0625 L 7.9375 16 Z M 10.3125 16 "/>
</g>
</svg>
