<?xml version="1.0" encoding="utf-8"?>
<!-- Generator: Adobe Illustrator 16.0.0, SVG Export Plug-In . SVG Version: 6.00 Build 0)  -->
<!DOCTYPE svg PUBLIC "-//W3C//DTD SVG 1.1//EN" "http://www.w3.org/Graphics/SVG/1.1/DTD/svg11.dtd">
<svg version="1.1" id="Layer_1" xmlns="http://www.w3.org/2000/svg" xmlns:xlink="http://www.w3.org/1999/xlink" x="0px" y="0px"
	 width="200px" height="100px" viewBox="0 0 200 100" enable-background="new 0 0 200 100" xml:space="preserve">
<g>
	<g>
		<g>
			<path d="M3,39.569c-0.217,0-0.438-0.038-0.654-0.117c-0.98-0.361-1.482-1.449-1.121-2.429c1.388-3.768,4.852-6.061,8.83-5.817
				c3.705,0.219,6.632,2.585,7.458,6.03c0.244,1.016-0.382,2.037-1.398,2.28c-1.016,0.244-2.037-0.383-2.28-1.398
				c-0.52-2.168-2.408-3.042-4.001-3.135c-1.805-0.103-4.087,0.716-5.057,3.349C4.493,39.095,3.77,39.569,3,39.569z"/>
		</g>
		<g>
			<path d="M29.327,77.56c-8.857,0-16.122-5.835-17.716-14.578c-0.188-1.027,0.494-2.013,1.521-2.2
				c1.031-0.186,2.012,0.494,2.2,1.522c1.367,7.497,8.073,12.272,15.951,11.358c1.039-0.122,1.977,0.624,2.098,1.66
				c0.121,1.038-0.623,1.978-1.66,2.098C30.913,77.514,30.114,77.56,29.327,77.56z"/>
		</g>
	</g>
	<g enable-background="new    ">
		<path d="M46.989,37.646V13.014c0-1.294,1.002-2.296,2.296-2.296c1.294,0,2.338,1.002,2.338,2.296v10.02h10.813v-10.02
			c0-1.294,1.002-2.296,2.296-2.296c1.294,0,2.338,1.002,2.338,2.296v24.632c0,1.294-1.044,2.296-2.338,2.296
			c-1.294,0-2.296-1.002-2.296-2.296v-10.02H51.623v10.02c0,1.294-1.043,2.296-2.338,2.296
			C47.991,39.941,46.989,38.939,46.989,37.646z"/>
		<path d="M93.79,29.546v8.183c0,1.211-1.002,2.213-2.212,2.213c-1.086,0-1.921-0.793-2.171-1.795
			c-1.587,1.127-3.465,1.795-5.553,1.795c-2.839,0-5.302-1.169-7.097-3.048c-1.795-1.92-2.839-4.509-2.839-7.348
			c0-2.88,1.043-5.469,2.839-7.348c1.795-1.92,4.258-3.131,7.097-3.131c2.087,0,3.966,0.71,5.553,1.837
			c0.25-1.044,1.085-1.837,2.171-1.837c1.21,0,2.212,1.002,2.212,2.255V29.546z M89.364,29.546c0-1.753-0.626-3.256-1.628-4.3
			c-1.002-1.127-2.422-1.712-3.883-1.712c-1.503,0-2.922,0.585-3.883,1.712c-1.002,1.044-1.586,2.547-1.586,4.3
			c0,1.712,0.584,3.215,1.586,4.3c0.96,1.044,2.38,1.629,3.883,1.629c1.461,0,2.881-0.585,3.883-1.629
			C88.738,32.761,89.364,31.258,89.364,29.546z"/>
		<path d="M105.145,10.718c1.295,0,2.338,1.044,2.338,2.296v24.632c0,1.252-1.043,2.296-2.338,2.296
			c-1.252,0-2.296-1.044-2.296-2.296V13.014C102.849,11.762,103.893,10.718,105.145,10.718z"/>
		<path d="M119.798,17.689v0.585h1.253c1.252,0,2.296,1.002,2.296,2.296c0,1.252-1.044,2.296-2.296,2.296h-1.253v14.737
			c0,1.252-1.002,2.296-2.296,2.296s-2.296-1.044-2.296-2.296V22.866h-1.086c-1.294,0-2.338-1.044-2.338-2.296
			c0-1.294,1.044-2.296,2.338-2.296h1.086v-0.585c0-1.545,0.167-2.881,0.793-4.091c0.585-1.253,1.753-2.213,3.006-2.589
			c0.835-0.25,1.628-0.334,2.505-0.334c1.252,0,2.296,1.044,2.296,2.297c0,1.294-1.044,2.338-2.296,2.338
			c-0.543,0-0.918,0.041-1.086,0.125c-0.166,0.041-0.208,0.083-0.25,0.125C120.132,15.561,119.798,16.145,119.798,17.689z"/>
		<path d="M146.56,37.688c0,1.21-1.002,2.254-2.255,2.254c-1.127,0-2.004-0.793-2.213-1.795c-1.586,1.085-3.59,1.795-5.678,1.795
			c-5.636,0-10.145-4.76-10.145-10.396c0-5.72,4.509-10.479,10.145-10.479c2.046,0,4.05,0.668,5.595,1.753v-7.848
			c0-1.211,1.002-2.255,2.296-2.255c1.253,0,2.255,1.044,2.255,2.255v16.531c0,0,0,0,0,0.042V37.688z M136.414,23.618
			c-1.503,0-2.881,0.626-3.924,1.712c-1.044,1.043-1.67,2.546-1.67,4.216c0,1.587,0.626,3.09,1.67,4.134
			c1.043,1.085,2.421,1.711,3.924,1.711c1.545,0,2.881-0.626,3.925-1.711c1.044-1.044,1.67-2.547,1.67-4.134
			c0-1.67-0.626-3.173-1.67-4.216C139.295,24.244,137.959,23.618,136.414,23.618z"/>
		<path d="M172.86,29.546v8.183c0,1.211-1.002,2.213-2.213,2.213c-1.085,0-1.92-0.793-2.171-1.795
			c-1.586,1.127-3.465,1.795-5.552,1.795c-2.84,0-5.303-1.169-7.098-3.048c-1.795-1.92-2.839-4.509-2.839-7.348
			c0-2.88,1.044-5.469,2.839-7.348c1.795-1.92,4.258-3.131,7.098-3.131c2.087,0,3.966,0.71,5.552,1.837
			c0.251-1.044,1.086-1.837,2.171-1.837c1.211,0,2.213,1.002,2.213,2.255V29.546z M168.435,29.546c0-1.753-0.626-3.256-1.628-4.3
			c-1.002-1.127-2.421-1.712-3.882-1.712c-1.504,0-2.923,0.585-3.883,1.712c-1.002,1.044-1.587,2.547-1.587,4.3
			c0,1.712,0.585,3.215,1.587,4.3c0.96,1.044,2.379,1.629,3.883,1.629c1.461,0,2.88-0.585,3.882-1.629
			C167.809,32.761,168.435,31.258,168.435,29.546z"/>
		<path d="M198.075,21.28v9.853v5.928c0,5.595-4.425,9.979-9.978,9.979c-1.503,0-3.048-0.418-4.3-1.044
			c-1.169-0.501-1.586-1.796-1.086-2.964c0.543-1.002,1.963-1.462,2.965-0.919c0.793,0.376,1.586,0.585,2.421,0.585
			c2.464-0.042,4.551-1.629,5.219-3.8c-1.169,0.668-2.589,1.002-3.966,1.002c-4.801,0-8.726-3.966-8.726-8.767V21.28
			c0-1.253,1.044-2.213,2.171-2.213c1.294,0,2.213,0.96,2.213,2.213v9.853c0,2.421,1.962,4.258,4.342,4.258
			c2.379,0,4.3-1.837,4.3-4.258V21.28c0-1.253,0.919-2.213,2.171-2.213C197.032,19.067,198.075,20.027,198.075,21.28z"/>
	</g>
	<g enable-background="new    ">
		<path d="M85.481,64.28L75.253,88.619c-0.042,0.126-0.125,0.293-0.209,0.376l-0.042,0.042c-0.042,0.084-0.125,0.167-0.208,0.25
			c0,0.084-0.042,0.084-0.042,0.126c-0.084,0.042-0.209,0.125-0.292,0.208h-0.042c-0.125,0.084-0.209,0.209-0.376,0.251H74
			c0,0-0.042,0-0.042,0.042c-0.083,0-0.208,0.041-0.334,0.083c-0.042,0-0.083,0-0.083,0c-0.125,0.042-0.25,0.042-0.417,0.042
			c-0.125,0-0.25,0-0.375-0.042c-0.084,0-0.125,0-0.125,0c-0.125-0.042-0.208-0.083-0.292-0.083
			c-0.042-0.042-0.042-0.042-0.083-0.042c-0.167-0.042-0.292-0.167-0.376-0.251c-0.042,0-0.042,0-0.042,0
			c-0.125-0.083-0.208-0.166-0.292-0.208c-0.042-0.042-0.042-0.042-0.083-0.126c-0.042-0.083-0.125-0.166-0.167-0.25
			c-0.083,0-0.083-0.042-0.083-0.042c-0.083-0.083-0.125-0.25-0.167-0.376l-5.469-12.941l-5.469,12.941
			c-0.042,0.126-0.125,0.293-0.167,0.376c-0.042,0-0.042,0.042-0.042,0.042c-0.084,0.084-0.167,0.167-0.251,0.25
			c0,0.084-0.042,0.084-0.042,0.126c-0.083,0.042-0.167,0.125-0.25,0.208c-0.083,0-0.083,0-0.083,0
			c-0.125,0.084-0.25,0.209-0.334,0.251c-0.042,0-0.042,0-0.042,0s-0.042,0-0.042,0.042c-0.167,0-0.25,0.041-0.334,0.083
			c-0.042,0-0.083,0-0.125,0c-0.125,0.042-0.251,0.042-0.376,0.042s-0.292,0-0.417-0.042c-0.042,0-0.083,0-0.125,0
			c-0.125-0.042-0.208-0.083-0.292-0.083c-0.042-0.042-0.042-0.042-0.083-0.042c-0.125-0.042-0.292-0.167-0.375-0.251
			c-0.042,0-0.042,0-0.042,0c-0.125-0.083-0.167-0.166-0.292-0.208c-0.042-0.042-0.042-0.042-0.084-0.126
			c-0.083-0.083-0.125-0.166-0.208-0.25v-0.042c-0.083-0.083-0.125-0.25-0.208-0.376L45.611,64.28
			c-0.459-1.127,0.042-2.505,1.253-2.964c1.127-0.501,2.505,0.042,2.964,1.211l8.183,19.329l5.386-12.816
			c0.375-0.919,1.252-1.42,2.171-1.42c0.876,0,1.753,0.501,2.171,1.42l5.385,12.816l8.141-19.329
			c0.501-1.169,1.837-1.712,3.047-1.211C85.439,61.775,85.982,63.153,85.481,64.28z"/>
		<path d="M91.744,86.991c-1.795-1.837-2.88-4.425-2.88-7.348c0-2.839,1.085-5.302,2.88-7.306c1.879-1.962,4.3-3.173,7.181-3.173
			c2.756,0,5.261,1.211,6.972,3.173c1.879,2.004,2.923,4.467,2.923,7.306c0,2.923-1.044,5.511-2.923,7.348
			c-1.711,1.962-4.216,3.173-6.972,3.173C96.044,90.164,93.623,88.953,91.744,86.991z M93.414,79.644
			c0,1.796,0.543,3.257,1.503,4.426c1.044,1.002,2.422,1.544,4.008,1.544c1.461,0,2.798-0.542,3.841-1.544
			c1.044-1.169,1.629-2.63,1.629-4.426c0-1.712-0.585-3.214-1.629-4.342c-1.043-0.918-2.379-1.586-3.841-1.586
			c-1.586,0-2.964,0.668-4.008,1.586C93.957,76.43,93.414,77.932,93.414,79.644z"/>
		<path d="M127.94,71.378c0,1.169-0.96,2.212-2.212,2.212c-0.961,0-1.796,0.251-2.506,0.794c-0.793,0.501-1.419,1.21-1.92,2.004
			c-1.002,1.336-1.503,2.922-1.712,3.507v7.932c0,1.211-1.044,2.213-2.296,2.213c-1.211,0-2.213-1.002-2.213-2.213V71.378
			c0-1.211,1.002-2.171,2.213-2.171c1.252,0,2.296,0.96,2.296,2.171v0.292c0.251-0.292,0.585-0.626,0.877-0.835
			c1.378-0.919,3.173-1.67,5.261-1.628C126.98,69.207,127.94,70.167,127.94,71.378z"/>
		<path d="M133.41,87.743V63.111c0-1.252,1.002-2.296,2.296-2.296s2.338,1.044,2.338,2.296v14.445l8.559-8.559
			c0.877-0.877,2.379-0.877,3.256,0c0.919,0.918,0.919,2.38,0,3.256l-6.262,6.263l6.429,7.724c0.794,1.002,0.668,2.463-0.334,3.256
			c-0.417,0.376-0.96,0.543-1.461,0.543c-0.668,0-1.336-0.292-1.753-0.835l-6.138-7.431l-2.296,2.296v3.674
			c0,1.252-1.044,2.296-2.338,2.296S133.41,88.995,133.41,87.743z"/>
		<path d="M155.787,84.069c0.751-1.002,2.212-1.128,3.131-0.334c1.085,0.918,2.964,1.878,4.593,1.837
			c1.127,0,2.17-0.376,2.838-0.793c0.585-0.502,0.752-0.919,0.752-1.253c0-0.209-0.042-0.292-0.125-0.417
			c-0.042-0.126-0.209-0.293-0.543-0.502c-0.584-0.417-1.837-0.876-3.34-1.168h-0.042c-1.294-0.251-2.546-0.585-3.632-1.086
			c-1.127-0.543-2.129-1.294-2.881-2.422c-0.459-0.751-0.709-1.67-0.709-2.63c0-1.92,1.085-3.548,2.463-4.592
			c1.461-1.002,3.215-1.545,5.135-1.545c2.881,0,4.926,1.378,6.262,2.296c1.002,0.668,1.295,2.046,0.668,3.09
			c-0.668,1.002-2.045,1.294-3.089,0.584c-1.336-0.877-2.505-1.545-3.841-1.545c-1.044,0-1.962,0.334-2.505,0.752
			c-0.543,0.376-0.668,0.752-0.668,0.96c0,0.167,0,0.209,0.083,0.334c0.042,0.084,0.168,0.251,0.46,0.418
			c0.542,0.376,1.628,0.751,3.048,1.002l0.041,0.042h0.042c1.378,0.25,2.672,0.626,3.883,1.21c1.127,0.501,2.254,1.294,2.964,2.464
			c0.501,0.834,0.793,1.795,0.793,2.755c0,2.046-1.127,3.757-2.63,4.843c-1.503,1.044-3.382,1.67-5.427,1.67
			c-3.257-0.042-5.762-1.545-7.432-2.881C155.161,86.407,155.035,84.987,155.787,84.069z"/>
	</g>
</g>
</svg>
