<?xml version="1.0" encoding="utf-8"?>
<!-- Generator: Adobe Illustrator 16.0.0, SVG Export Plug-In . SVG Version: 6.00 Build 0)  -->
<!DOCTYPE svg PUBLIC "-//W3C//DTD SVG 1.1//EN" "http://www.w3.org/Graphics/SVG/1.1/DTD/svg11.dtd">
<svg version="1.1" id="Layer_1" xmlns="http://www.w3.org/2000/svg" xmlns:xlink="http://www.w3.org/1999/xlink" x="0px" y="0px"
	 width="101.225px" height="59.527px" viewBox="0 11.736 101.225 59.527" enable-background="new 0 11.736 101.225 59.527"
	 xml:space="preserve">
<g>
	<g>
		<path d="M7.336,34.871V20.682c0-0.745,0.577-1.323,1.322-1.323c0.745,0,1.346,0.578,1.346,1.323v5.771h6.229v-5.771
			c0-0.745,0.578-1.323,1.323-1.323c0.747,0,1.347,0.578,1.347,1.323V34.87c0,0.746-0.6,1.322-1.347,1.322
			c-0.745,0-1.323-0.577-1.323-1.322v-5.771h-6.229v5.771c0,0.746-0.601,1.322-1.346,1.322C7.913,36.192,7.336,35.616,7.336,34.871z
			"/>
	</g>
	<g>
		<path d="M34.293,30.205v4.713c0,0.698-0.578,1.274-1.276,1.274c-0.625,0-1.105-0.457-1.25-1.033
			c-0.915,0.648-1.996,1.033-3.198,1.033c-1.636,0-3.054-0.673-4.088-1.755c-1.036-1.106-1.637-2.597-1.637-4.232
			c0-1.659,0.601-3.149,1.637-4.232c1.034-1.107,2.452-1.804,4.088-1.804c1.202,0,2.283,0.408,3.198,1.058
			c0.145-0.602,0.625-1.058,1.25-1.058c0.698,0,1.276,0.577,1.276,1.298V30.205z M31.743,30.205c0-1.01-0.36-1.875-0.937-2.477
			c-0.577-0.649-1.395-0.985-2.236-0.985c-0.867,0-1.683,0.336-2.237,0.985c-0.577,0.602-0.913,1.467-0.913,2.477
			c0,0.987,0.336,1.852,0.913,2.477c0.554,0.602,1.37,0.938,2.237,0.938c0.841,0,1.659-0.336,2.236-0.938
			C31.383,32.057,31.743,31.192,31.743,30.205z"/>
	</g>
	<g>
		<path d="M40.833,19.359c0.745,0,1.347,0.601,1.347,1.323V34.87c0,0.721-0.602,1.322-1.347,1.322c-0.721,0-1.322-0.601-1.322-1.322
			V20.682C39.51,19.96,40.111,19.359,40.833,19.359z"/>
	</g>
	<g>
		<path d="M49.272,23.375v0.337h0.723c0.721,0,1.32,0.577,1.32,1.322c0,0.722-0.6,1.323-1.32,1.323h-0.723v8.489
			c0,0.722-0.577,1.323-1.322,1.323c-0.746,0-1.324-0.601-1.324-1.323v-8.489h-0.625c-0.745,0-1.346-0.601-1.346-1.323
			c0-0.745,0.601-1.322,1.346-1.322h0.625v-0.337c0-0.89,0.097-1.659,0.458-2.356c0.336-0.721,1.009-1.274,1.73-1.492
			c0.481-0.143,0.938-0.191,1.442-0.191c0.722,0,1.322,0.601,1.322,1.322c0,0.746-0.602,1.347-1.322,1.347
			c-0.313,0-0.529,0.023-0.625,0.072c-0.096,0.024-0.119,0.048-0.145,0.072C49.463,22.149,49.272,22.486,49.272,23.375z"/>
	</g>
	<g>
		<path d="M64.687,34.895c0,0.697-0.576,1.298-1.297,1.298c-0.649,0-1.154-0.457-1.274-1.033c-0.914,0.625-2.068,1.033-3.271,1.033
			c-3.247,0-5.844-2.742-5.844-5.988c0-3.295,2.597-6.036,5.844-6.036c1.179,0,2.332,0.385,3.223,1.009v-4.521
			c0-0.698,0.577-1.299,1.323-1.299c0.721,0,1.297,0.601,1.297,1.299v9.523c0,0,0,0,0,0.024V34.895z M58.844,26.791
			c-0.865,0-1.658,0.36-2.26,0.986c-0.603,0.6-0.963,1.466-0.963,2.428c0,0.914,0.36,1.779,0.963,2.381
			c0.602,0.625,1.395,0.986,2.26,0.986c0.89,0,1.658-0.361,2.26-0.986c0.604-0.602,0.963-1.467,0.963-2.381
			c0-0.962-0.359-1.828-0.963-2.428C60.502,27.151,59.733,26.791,58.844,26.791z"/>
	</g>
	<g>
		<path d="M79.836,30.205v4.713c0,0.698-0.576,1.274-1.274,1.274c-0.625,0-1.104-0.457-1.25-1.033
			c-0.914,0.648-1.997,1.033-3.199,1.033c-1.635,0-3.054-0.673-4.088-1.755c-1.032-1.106-1.635-2.597-1.635-4.232
			c0-1.659,0.603-3.149,1.635-4.232c1.034-1.107,2.453-1.804,4.088-1.804c1.202,0,2.285,0.408,3.199,1.058
			c0.146-0.602,0.625-1.058,1.25-1.058c0.698,0,1.274,0.577,1.274,1.298V30.205z M77.288,30.205c0-1.01-0.361-1.875-0.938-2.477
			c-0.578-0.649-1.396-0.985-2.238-0.985c-0.863,0-1.683,0.336-2.236,0.985c-0.576,0.602-0.914,1.467-0.914,2.477
			c0,0.987,0.338,1.852,0.914,2.477c0.555,0.602,1.373,0.938,2.236,0.938c0.842,0,1.66-0.336,2.238-0.938
			C76.926,32.057,77.288,31.192,77.288,30.205z"/>
	</g>
	<g>
		<path d="M94.358,25.443v5.676v3.415c0,3.223-2.548,5.748-5.746,5.748c-0.865,0-1.755-0.241-2.476-0.602
			c-0.675-0.289-0.914-1.034-0.626-1.707c0.313-0.577,1.13-0.842,1.707-0.529c0.457,0.217,0.912,0.338,1.395,0.338
			c1.419-0.025,2.621-0.939,3.008-2.189c-0.675,0.385-1.492,0.578-2.287,0.578c-2.765,0-5.023-2.285-5.023-5.05v-5.676
			c0-0.721,0.602-1.274,1.25-1.274c0.745,0,1.275,0.553,1.275,1.274v5.676c0,1.395,1.129,2.453,2.498,2.453
			c1.373,0,2.479-1.058,2.479-2.453v-5.676c0-0.721,0.529-1.274,1.251-1.274C93.76,24.169,94.358,24.722,94.358,25.443z"/>
	</g>
	<g>
		<path d="M29.509,50.211l-5.892,14.02c-0.023,0.072-0.071,0.17-0.121,0.218l-0.024,0.024c-0.024,0.047-0.071,0.096-0.12,0.144
			c0,0.049-0.023,0.049-0.023,0.071c-0.048,0.025-0.122,0.072-0.17,0.121h-0.023c-0.072,0.049-0.12,0.121-0.215,0.146h-0.025
			c0,0-0.024,0-0.024,0.022c-0.048,0-0.12,0.025-0.192,0.049c-0.023,0-0.048,0-0.048,0c-0.073,0.023-0.145,0.023-0.24,0.023
			c-0.073,0-0.146,0-0.218-0.023c-0.047,0-0.072,0-0.072,0c-0.072-0.022-0.122-0.049-0.168-0.049
			c-0.024-0.022-0.024-0.022-0.048-0.022c-0.096-0.022-0.167-0.097-0.217-0.146c-0.024,0-0.024,0-0.024,0
			c-0.072-0.049-0.12-0.096-0.169-0.121c-0.022-0.022-0.022-0.022-0.046-0.071c-0.025-0.048-0.074-0.097-0.098-0.144
			c-0.048,0-0.048-0.024-0.048-0.024c-0.048-0.048-0.072-0.146-0.095-0.218l-3.15-7.453l-3.151,7.453
			c-0.024,0.072-0.071,0.17-0.095,0.218c-0.024,0-0.024,0.024-0.024,0.024c-0.048,0.047-0.096,0.096-0.144,0.144
			c0,0.049-0.024,0.049-0.024,0.071c-0.048,0.025-0.097,0.072-0.145,0.121c-0.048,0-0.048,0-0.048,0
			c-0.072,0.049-0.145,0.121-0.192,0.146c-0.023,0-0.023,0-0.023,0s-0.024,0-0.024,0.022c-0.097,0-0.144,0.025-0.193,0.049
			c-0.022,0-0.047,0-0.072,0c-0.073,0.023-0.144,0.023-0.216,0.023s-0.168,0-0.24-0.023c-0.024,0-0.048,0-0.073,0
			c-0.072-0.022-0.12-0.049-0.168-0.049c-0.024-0.022-0.024-0.022-0.048-0.022c-0.072-0.022-0.168-0.097-0.217-0.146
			c-0.023,0-0.023,0-0.023,0c-0.072-0.049-0.095-0.096-0.168-0.121c-0.024-0.022-0.024-0.022-0.048-0.071
			c-0.048-0.048-0.072-0.097-0.12-0.144v-0.024c-0.048-0.048-0.072-0.146-0.12-0.218l-5.916-14.02
			c-0.265-0.648,0.024-1.443,0.722-1.707c0.649-0.289,1.443,0.023,1.707,0.697l4.714,11.135l3.103-7.383
			c0.215-0.529,0.721-0.818,1.25-0.818c0.504,0,1.01,0.289,1.25,0.818l3.103,7.383l4.688-11.135
			c0.289-0.674,1.058-0.986,1.757-0.697C29.485,48.768,29.797,49.563,29.509,50.211z"/>
	</g>
	<g>
		<path d="M33.114,63.293c-1.034-1.059-1.66-2.549-1.66-4.232c0-1.635,0.626-3.053,1.66-4.207c1.082-1.131,2.477-1.828,4.136-1.828
			c1.587,0,3.03,0.697,4.015,1.828c1.084,1.154,1.685,2.572,1.685,4.207c0,1.685-0.601,3.174-1.685,4.232
			c-0.985,1.131-2.428,1.828-4.015,1.828C35.591,65.121,34.196,64.424,33.114,63.293z M34.077,59.061
			c0,1.035,0.312,1.877,0.866,2.551c0.601,0.576,1.394,0.89,2.308,0.89c0.842,0,1.61-0.313,2.212-0.89
			c0.602-0.674,0.938-1.516,0.938-2.551c0-0.983-0.336-1.852-0.938-2.5c-0.602-0.528-1.37-0.914-2.212-0.914
			c-0.914,0-1.707,0.386-2.308,0.914C34.389,57.209,34.077,58.076,34.077,59.061z"/>
	</g>
	<g>
		<path d="M53.963,54.299c0,0.674-0.555,1.275-1.274,1.275c-0.554,0-1.033,0.145-1.442,0.457c-0.457,0.289-0.816,0.697-1.104,1.154
			c-0.578,0.77-0.866,1.684-0.986,2.02v4.568c0,0.699-0.601,1.274-1.324,1.274c-0.696,0-1.274-0.575-1.274-1.274v-9.476
			c0-0.696,0.578-1.25,1.274-1.25c0.723,0,1.324,0.554,1.324,1.25v0.17c0.144-0.17,0.337-0.36,0.505-0.481
			c0.795-0.527,1.827-0.961,3.029-0.938C53.409,53.049,53.963,53.602,53.963,54.299z"/>
	</g>
	<g>
		<path d="M57.113,63.727V49.539c0-0.723,0.577-1.324,1.322-1.324s1.347,0.602,1.347,1.324v8.32l4.93-4.93
			c0.506-0.507,1.373-0.507,1.875,0c0.529,0.528,0.529,1.368,0,1.875l-3.604,3.606l3.703,4.446c0.456,0.578,0.385,1.42-0.192,1.877
			c-0.24,0.218-0.554,0.313-0.843,0.313c-0.385,0-0.769-0.168-1.01-0.479l-3.536-4.279l-1.32,1.322v2.115
			c0,0.721-0.603,1.321-1.348,1.321S57.113,64.447,57.113,63.727z"/>
	</g>
	<g>
		<path d="M70,61.611c0.436-0.578,1.274-0.65,1.806-0.193c0.626,0.529,1.708,1.082,2.646,1.059c0.648,0,1.25-0.217,1.635-0.457
			c0.336-0.289,0.433-0.528,0.433-0.723c0-0.119-0.022-0.168-0.071-0.24c-0.023-0.072-0.121-0.168-0.313-0.289
			c-0.336-0.24-1.059-0.504-1.924-0.672h-0.023c-0.746-0.145-1.467-0.338-2.093-0.627c-0.648-0.313-1.228-0.744-1.658-1.393
			c-0.265-0.434-0.409-0.963-0.409-1.516c0-1.105,0.624-2.045,1.419-2.646c0.843-0.576,1.853-0.889,2.957-0.889
			c1.66,0,2.839,0.795,3.606,1.322c0.578,0.385,0.746,1.178,0.385,1.778c-0.385,0.578-1.178,0.746-1.777,0.338
			c-0.771-0.506-1.443-0.891-2.214-0.891c-0.602,0-1.13,0.192-1.44,0.434c-0.313,0.216-0.385,0.433-0.385,0.554
			c0,0.096,0,0.119,0.047,0.19c0.023,0.049,0.097,0.146,0.265,0.24c0.313,0.217,0.938,0.434,1.755,0.577l0.023,0.023h0.023
			c0.794,0.145,1.54,0.361,2.238,0.697c0.648,0.289,1.299,0.746,1.706,1.42c0.288,0.48,0.456,1.033,0.456,1.586
			c0,1.18-0.647,2.166-1.514,2.789c-0.865,0.602-1.949,0.963-3.125,0.963c-1.877-0.023-3.32-0.891-4.281-1.66
			C69.642,62.957,69.569,62.139,70,61.611z"/>
	</g>
</g>
</svg>
