<?xml version="1.0" encoding="UTF-8"?>
<!DOCTYPE svg  PUBLIC '-//W3C//DTD SVG 1.1//EN'  'http://www.w3.org/Graphics/SVG/1.1/DTD/svg11.dtd'>
<svg width="101.22px" height="59.527px" enable-background="new 0 11.736 101.225 59.527" version="1.1" viewBox="0 11.736 101.22 59.527" xml:space="preserve" xmlns="http://www.w3.org/2000/svg">
		<path d="m7.336 34.871v-14.189c0-0.745 0.577-1.323 1.322-1.323s1.346 0.578 1.346 1.323v5.771h6.229v-5.771c0-0.745 0.578-1.323 1.323-1.323 0.747 0 1.347 0.578 1.347 1.323v14.188c0 0.746-0.6 1.322-1.347 1.322-0.745 0-1.323-0.577-1.323-1.322v-5.771h-6.229v5.771c0 0.746-0.601 1.322-1.346 1.322s-1.322-0.576-1.322-1.321z"/>
		<path d="m34.293 30.205v4.713c0 0.698-0.578 1.274-1.276 1.274-0.625 0-1.105-0.457-1.25-1.033-0.915 0.648-1.996 1.033-3.198 1.033-1.636 0-3.054-0.673-4.088-1.755-1.036-1.106-1.637-2.597-1.637-4.232 0-1.659 0.601-3.149 1.637-4.232 1.034-1.107 2.452-1.804 4.088-1.804 1.202 0 2.283 0.408 3.198 1.058 0.145-0.602 0.625-1.058 1.25-1.058 0.698 0 1.276 0.577 1.276 1.298v4.738zm-2.55 0c0-1.01-0.36-1.875-0.937-2.477-0.577-0.649-1.395-0.985-2.236-0.985-0.867 0-1.683 0.336-2.237 0.985-0.577 0.602-0.913 1.467-0.913 2.477 0 0.987 0.336 1.852 0.913 2.477 0.554 0.602 1.37 0.938 2.237 0.938 0.841 0 1.659-0.336 2.236-0.938 0.577-0.625 0.937-1.49 0.937-2.477z"/>
		<path d="m40.833 19.359c0.745 0 1.347 0.601 1.347 1.323v14.188c0 0.721-0.602 1.322-1.347 1.322-0.721 0-1.322-0.601-1.322-1.322v-14.188c-1e-3 -0.722 0.6-1.323 1.322-1.323z"/>
		<path d="m49.272 23.375v0.337h0.723c0.721 0 1.32 0.577 1.32 1.322 0 0.722-0.6 1.323-1.32 1.323h-0.723v8.489c0 0.722-0.577 1.323-1.322 1.323-0.746 0-1.324-0.601-1.324-1.323v-8.489h-0.625c-0.745 0-1.346-0.601-1.346-1.323 0-0.745 0.601-1.322 1.346-1.322h0.625v-0.337c0-0.89 0.097-1.659 0.458-2.356 0.336-0.721 1.009-1.274 1.73-1.492 0.481-0.143 0.938-0.191 1.442-0.191 0.722 0 1.322 0.601 1.322 1.322 0 0.746-0.602 1.347-1.322 1.347-0.313 0-0.529 0.023-0.625 0.072-0.096 0.024-0.119 0.048-0.145 0.072-0.023 0-0.214 0.337-0.214 1.226z"/>
		<path d="m64.687 34.895c0 0.697-0.576 1.298-1.297 1.298-0.649 0-1.154-0.457-1.274-1.033-0.914 0.625-2.068 1.033-3.271 1.033-3.247 0-5.844-2.742-5.844-5.988 0-3.295 2.597-6.036 5.844-6.036 1.179 0 2.332 0.385 3.223 1.009v-4.521c0-0.698 0.577-1.299 1.323-1.299 0.721 0 1.297 0.601 1.297 1.299v9.523 0.024 4.691zm-5.843-8.104c-0.865 0-1.658 0.36-2.26 0.986-0.603 0.6-0.963 1.466-0.963 2.428 0 0.914 0.36 1.779 0.963 2.381 0.602 0.625 1.395 0.986 2.26 0.986 0.89 0 1.658-0.361 2.26-0.986 0.604-0.602 0.963-1.467 0.963-2.381 0-0.962-0.359-1.828-0.963-2.428-0.602-0.626-1.371-0.986-2.26-0.986z"/>
		<path d="m79.836 30.205v4.713c0 0.698-0.576 1.274-1.274 1.274-0.625 0-1.104-0.457-1.25-1.033-0.914 0.648-1.997 1.033-3.199 1.033-1.635 0-3.054-0.673-4.088-1.755-1.032-1.106-1.635-2.597-1.635-4.232 0-1.659 0.603-3.149 1.635-4.232 1.034-1.107 2.453-1.804 4.088-1.804 1.202 0 2.285 0.408 3.199 1.058 0.146-0.602 0.625-1.058 1.25-1.058 0.698 0 1.274 0.577 1.274 1.298v4.738zm-2.548 0c0-1.01-0.361-1.875-0.938-2.477-0.578-0.649-1.396-0.985-2.238-0.985-0.863 0-1.683 0.336-2.236 0.985-0.576 0.602-0.914 1.467-0.914 2.477 0 0.987 0.338 1.852 0.914 2.477 0.555 0.602 1.373 0.938 2.236 0.938 0.842 0 1.66-0.336 2.238-0.938 0.576-0.625 0.938-1.49 0.938-2.477z"/>
		<path d="m94.358 25.443v9.091c0 3.223-2.548 5.748-5.746 5.748-0.865 0-1.755-0.241-2.476-0.602-0.675-0.289-0.914-1.034-0.626-1.707 0.313-0.577 1.13-0.842 1.707-0.529 0.457 0.217 0.912 0.338 1.395 0.338 1.419-0.025 2.621-0.939 3.008-2.189-0.675 0.385-1.492 0.578-2.287 0.578-2.765 0-5.023-2.285-5.023-5.05v-5.676c0-0.721 0.602-1.274 1.25-1.274 0.745 0 1.275 0.553 1.275 1.274v5.676c0 1.395 1.129 2.453 2.498 2.453 1.373 0 2.479-1.058 2.479-2.453v-5.676c0-0.721 0.529-1.274 1.251-1.274 0.697-2e-3 1.295 0.551 1.295 1.272z"/>
		<path d="m29.509 50.211-5.892 14.02c-0.023 0.072-0.071 0.17-0.121 0.218l-0.024 0.024c-0.024 0.047-0.071 0.096-0.12 0.144 0 0.049-0.023 0.049-0.023 0.071-0.048 0.025-0.122 0.072-0.17 0.121h-0.023c-0.072 0.049-0.12 0.121-0.215 0.146h-0.025s-0.024 0-0.024 0.022c-0.048 0-0.12 0.025-0.192 0.049h-0.048c-0.073 0.023-0.145 0.023-0.24 0.023-0.073 0-0.146 0-0.218-0.023h-0.072c-0.072-0.022-0.122-0.049-0.168-0.049-0.024-0.022-0.024-0.022-0.048-0.022-0.096-0.022-0.167-0.097-0.217-0.146h-0.024c-0.072-0.049-0.12-0.096-0.169-0.121-0.022-0.022-0.022-0.022-0.046-0.071-0.025-0.048-0.074-0.097-0.098-0.144-0.048 0-0.048-0.024-0.048-0.024-0.048-0.048-0.072-0.146-0.095-0.218l-3.15-7.453-3.151 7.453c-0.024 0.072-0.071 0.17-0.095 0.218-0.024 0-0.024 0.024-0.024 0.024-0.048 0.047-0.096 0.096-0.144 0.144 0 0.049-0.024 0.049-0.024 0.071-0.048 0.025-0.097 0.072-0.145 0.121h-0.048c-0.072 0.049-0.145 0.121-0.192 0.146h-0.023s-0.024 0-0.024 0.022c-0.097 0-0.144 0.025-0.193 0.049h-0.072c-0.073 0.023-0.144 0.023-0.216 0.023s-0.168 0-0.24-0.023h-0.073c-0.072-0.022-0.12-0.049-0.168-0.049-0.024-0.022-0.024-0.022-0.048-0.022-0.072-0.022-0.168-0.097-0.217-0.146h-0.023c-0.072-0.049-0.095-0.096-0.168-0.121-0.024-0.022-0.024-0.022-0.048-0.071-0.048-0.048-0.072-0.097-0.12-0.144v-0.024c-0.048-0.048-0.072-0.146-0.12-0.218l-5.916-14.02c-0.265-0.648 0.024-1.443 0.722-1.707 0.649-0.289 1.443 0.023 1.707 0.697l4.714 11.135 3.103-7.383c0.215-0.529 0.721-0.818 1.25-0.818 0.504 0 1.01 0.289 1.25 0.818l3.103 7.383 4.688-11.135c0.289-0.674 1.058-0.986 1.757-0.697 0.644 0.264 0.956 1.059 0.668 1.707z"/>
		<path d="m33.114 63.293c-1.034-1.059-1.66-2.549-1.66-4.232 0-1.635 0.626-3.053 1.66-4.207 1.082-1.131 2.477-1.828 4.136-1.828 1.587 0 3.03 0.697 4.015 1.828 1.084 1.154 1.685 2.572 1.685 4.207 0 1.685-0.601 3.174-1.685 4.232-0.985 1.131-2.428 1.828-4.015 1.828-1.659 0-3.054-0.697-4.136-1.828zm0.963-4.232c0 1.035 0.312 1.877 0.866 2.551 0.601 0.576 1.394 0.89 2.308 0.89 0.842 0 1.61-0.313 2.212-0.89 0.602-0.674 0.938-1.516 0.938-2.551 0-0.983-0.336-1.852-0.938-2.5-0.602-0.528-1.37-0.914-2.212-0.914-0.914 0-1.707 0.386-2.308 0.914-0.554 0.648-0.866 1.515-0.866 2.5z"/>
		<path d="m53.963 54.299c0 0.674-0.555 1.275-1.274 1.275-0.554 0-1.033 0.145-1.442 0.457-0.457 0.289-0.816 0.697-1.104 1.154-0.578 0.77-0.866 1.684-0.986 2.02v4.568c0 0.699-0.601 1.274-1.324 1.274-0.696 0-1.274-0.575-1.274-1.274v-9.476c0-0.696 0.578-1.25 1.274-1.25 0.723 0 1.324 0.554 1.324 1.25v0.17c0.144-0.17 0.337-0.36 0.505-0.481 0.795-0.527 1.827-0.961 3.029-0.938 0.718 1e-3 1.272 0.554 1.272 1.251z"/>
		<path d="m57.113 63.727v-14.188c0-0.723 0.577-1.324 1.322-1.324s1.347 0.602 1.347 1.324v8.32l4.93-4.93c0.506-0.507 1.373-0.507 1.875 0 0.529 0.528 0.529 1.368 0 1.875l-3.604 3.606 3.703 4.446c0.456 0.578 0.385 1.42-0.192 1.877-0.24 0.218-0.554 0.313-0.843 0.313-0.385 0-0.769-0.168-1.01-0.479l-3.536-4.279-1.32 1.322v2.115c0 0.721-0.603 1.321-1.348 1.321s-1.324-0.599-1.324-1.319z"/>
		<path d="m70 61.611c0.436-0.578 1.274-0.65 1.806-0.193 0.626 0.529 1.708 1.082 2.646 1.059 0.648 0 1.25-0.217 1.635-0.457 0.336-0.289 0.433-0.528 0.433-0.723 0-0.119-0.022-0.168-0.071-0.24-0.023-0.072-0.121-0.168-0.313-0.289-0.336-0.24-1.059-0.504-1.924-0.672h-0.023c-0.746-0.145-1.467-0.338-2.093-0.627-0.648-0.313-1.228-0.744-1.658-1.393-0.265-0.434-0.409-0.963-0.409-1.516 0-1.105 0.624-2.045 1.419-2.646 0.843-0.576 1.853-0.889 2.957-0.889 1.66 0 2.839 0.795 3.606 1.322 0.578 0.385 0.746 1.178 0.385 1.778-0.385 0.578-1.178 0.746-1.777 0.338-0.771-0.506-1.443-0.891-2.214-0.891-0.602 0-1.13 0.192-1.44 0.434-0.313 0.216-0.385 0.433-0.385 0.554 0 0.096 0 0.119 0.047 0.19 0.023 0.049 0.097 0.146 0.265 0.24 0.313 0.217 0.938 0.434 1.755 0.577l0.023 0.023h0.023c0.794 0.145 1.54 0.361 2.238 0.697 0.648 0.289 1.299 0.746 1.706 1.42 0.288 0.48 0.456 1.033 0.456 1.586 0 1.18-0.647 2.166-1.514 2.789-0.865 0.602-1.949 0.963-3.125 0.963-1.877-0.023-3.32-0.891-4.281-1.66-0.531-0.428-0.604-1.246-0.173-1.774z"/>
</svg>
