<?xml version="1.0" encoding="utf-8"?>
<!-- Generator: Adobe Illustrator 16.0.0, SVG Export Plug-In . SVG Version: 6.00 Build 0)  -->
<!DOCTYPE svg PUBLIC "-//W3C//DTD SVG 1.1//EN" "http://www.w3.org/Graphics/SVG/1.1/DTD/svg11.dtd">
<svg version="1.1" id="Layer_1" xmlns="http://www.w3.org/2000/svg" xmlns:xlink="http://www.w3.org/1999/xlink" x="0px" y="0px"
	 width="24.002px" height="59.527px" viewBox="45.668 11.736 24.002 59.527" enable-background="new 45.668 11.736 24.002 59.527"
	 xml:space="preserve">
<g>
	<g>
		<g>
			<path d="M51.667,35.91c-0.119,0-0.238-0.021-0.355-0.064c-0.527-0.196-0.799-0.783-0.603-1.313
				c0.791-2.136,2.765-3.43,5.026-3.295c2.101,0.125,3.759,1.464,4.226,3.412c0.132,0.549-0.206,1.1-0.755,1.231
				c-0.547,0.133-1.102-0.206-1.23-0.755c-0.308-1.278-1.42-1.792-2.36-1.849c-1.021-0.056-2.416,0.418-2.989,1.965
				C52.472,35.655,52.081,35.91,51.667,35.91z"/>
		</g>
	</g>
	<g>
		<g>
			<path d="M66.837,57.795c-5.068,0-9.229-3.336-10.146-8.336c-0.101-0.555,0.268-1.087,0.822-1.189
				c0.553-0.102,1.086,0.267,1.188,0.821c0.799,4.354,4.701,7.126,9.273,6.595c0.557-0.064,1.067,0.336,1.133,0.896
				c0.064,0.562-0.336,1.067-0.896,1.133C67.747,57.77,67.289,57.795,66.837,57.795z"/>
		</g>
	</g>
</g>
</svg>
