<?xml version="1.0" encoding="UTF-8"?>
<svg xmlns="http://www.w3.org/2000/svg" xmlns:xlink="http://www.w3.org/1999/xlink" width="16pt" height="16pt" viewBox="0 0 16 16" version="1.1">
<g id="surface1">
<path style=" stroke:none;fill-rule:nonzero;fill:rgb(12.54902%,87.45098%,25.098039%);fill-opacity:1;" d="M 2.398438 0 L 13.601562 0 C 14.925781 0 16 1.074219 16 2.398438 L 16 13.601562 C 16 14.925781 14.925781 16 13.601562 16 L 2.398438 16 C 1.074219 16 0 14.925781 0 13.601562 L 0 2.398438 C 0 1.074219 1.074219 0 2.398438 0 Z M 2.398438 0 "/>
<path style=" stroke:none;fill-rule:nonzero;fill:rgb(100%,100%,100%);fill-opacity:1;" d="M 12.34375 10.5625 C 12.03125 10.28125 11.65625 10.03125 11.3125 9.84375 C 10.59375 9.34375 9.96875 9.3125 9.46875 10.03125 C 9.15625 10.46875 8.75 10.53125 8.3125 10.34375 C 7.09375 9.78125 6.1875 9 5.6875 7.78125 C 5.4375 7.28125 5.4375 6.8125 6 6.46875 C 6.28125 6.28125 6.59375 6.03125 6.5625 5.59375 C 6.53125 5.03125 5.1875 3.15625 4.625 2.96875 C 4.375 2.90625 4.1875 2.90625 3.9375 2.96875 C 2.65625 3.40625 2.15625 4.40625 2.625 5.625 C 4.078125 9.167969 6.910156 11.964844 10.46875 13.375 L 11 13.53125 C 11.8125 13.53125 12.78125 12.75 13.09375 11.96875 C 13.375 11.21875 12.78125 10.90625 12.34375 10.5625 Z M 12.34375 10.5625 "/>
<path style="fill:none;stroke-width:17;stroke-linecap:round;stroke-linejoin:miter;stroke:rgb(100%,100%,100%);stroke-opacity:1;stroke-miterlimit:4;" d="M 268 138 C 268 138 309 137 340 168 C 371 198 367 242 367 242 M 280 179 C 280 179 298 177 313 193 C 328 208 326 227 326 227 M 255 98 C 255 98 319 95 366 142 C 413 190 409 256 409 256 " transform="matrix(0.03125,0,0,0.03125,0,0)"/>
</g>
</svg>
