<?xml version="1.0" encoding="utf-8"?>
<!-- Generator: Adobe Illustrator 16.0.0, SVG Export Plug-In . SVG Version: 6.00 Build 0)  -->
<!DOCTYPE svg PUBLIC "-//W3C//DTD SVG 1.1//EN" "http://www.w3.org/Graphics/SVG/1.1/DTD/svg11.dtd">
<svg version="1.1" id="Layer_1" xmlns="http://www.w3.org/2000/svg" xmlns:xlink="http://www.w3.org/1999/xlink" x="0px" y="0px"
	 width="82.475px" height="59.527px" viewBox="0 11.736 82.475 59.527" enable-background="new 0 11.736 82.475 59.527"
	 xml:space="preserve">
<g>
	<path fill="#231F20" d="M5.971,31.939c0.391-0.477,1.108-0.543,1.585-0.152c0.956,0.782,2.607,1.694,4.149,1.673
		c1.086,0,2.063-0.327,2.715-0.805c0.651-0.478,0.934-1.021,0.934-1.563c0-0.283-0.064-0.478-0.196-0.695
		c-0.13-0.217-0.325-0.435-0.651-0.652c-0.629-0.413-1.694-0.782-2.976-1.021h-0.043c-1.021-0.195-1.977-0.456-2.802-0.847
		c-0.826-0.391-1.542-0.933-2.02-1.694c-0.326-0.521-0.5-1.129-0.5-1.781c0-1.303,0.739-2.432,1.738-3.17
		c1.021-0.739,2.346-1.151,3.757-1.151c2.085,0,3.628,1.02,4.735,1.738c0.499,0.347,0.652,1.042,0.304,1.541
		c-0.326,0.521-1.021,0.673-1.542,0.326c-1.107-0.737-2.171-1.39-3.497-1.39c-0.977,0-1.846,0.305-2.433,0.739
		c-0.586,0.435-0.825,0.911-0.825,1.368c0,0.261,0.043,0.435,0.152,0.608c0.108,0.174,0.304,0.37,0.586,0.565
		c0.564,0.391,1.542,0.738,2.715,0.956H11.9c1.108,0.217,2.128,0.5,2.997,0.912c0.891,0.435,1.672,0.999,2.172,1.802
		c0.326,0.521,0.521,1.174,0.521,1.847c0,1.39-0.782,2.584-1.867,3.366c-1.065,0.782-2.477,1.238-4.019,1.238
		c-2.346-0.022-4.322-1.194-5.561-2.172C5.667,33.134,5.602,32.418,5.971,31.939z"/>
	<path fill="#231F20" d="M25.476,26.054c0,0.651-0.565,1.194-1.216,1.194h-0.543v6.06c0.674,0,1.195,0.543,1.195,1.216
		c0,0.674-0.521,1.195-1.195,1.195c-1.325,0-2.411-1.087-2.411-2.412v-6.06h-0.63c-0.672,0-1.194-0.542-1.194-1.194
		c0-0.673,0.521-1.195,1.194-1.195h0.63V21.71c0-0.673,0.543-1.194,1.216-1.194s1.194,0.521,1.194,1.194v3.149h0.543
		C24.911,24.859,25.476,25.381,25.476,26.054z"/>
	<path fill="#231F20" d="M37.813,30.311v4.257c0,0.63-0.521,1.152-1.152,1.152c-0.564,0-0.998-0.413-1.129-0.935
		c-0.825,0.586-1.802,0.935-2.889,0.935c-1.477,0-2.759-0.608-3.692-1.586c-0.934-0.999-1.477-2.346-1.477-3.823
		c0-1.499,0.543-2.844,1.477-3.822c0.933-0.999,2.215-1.629,3.692-1.629c1.086,0,2.064,0.369,2.889,0.956
		c0.131-0.543,0.565-0.956,1.129-0.956c0.63,0,1.152,0.521,1.152,1.172V30.311z M35.51,30.311c0-0.912-0.326-1.693-0.848-2.236
		c-0.521-0.587-1.258-0.891-2.02-0.891c-0.782,0-1.52,0.304-2.019,0.891c-0.521,0.543-0.827,1.325-0.827,2.236
		c0,0.891,0.305,1.673,0.827,2.237c0.499,0.543,1.237,0.847,2.019,0.847c0.761,0,1.499-0.304,2.02-0.847
		C35.184,31.984,35.51,31.202,35.51,30.311z"/>
	<path fill="#231F20" d="M50.931,26.011v5.126v3.083c0,2.911-2.304,5.191-5.19,5.191c-0.782,0-1.586-0.217-2.238-0.542
		c-0.607-0.261-0.825-0.935-0.563-1.543c0.282-0.521,1.02-0.759,1.541-0.477c0.413,0.195,0.826,0.304,1.261,0.304
		c1.281-0.021,2.367-0.847,2.715-1.977c-0.608,0.348-1.347,0.521-2.063,0.521c-2.498,0-4.54-2.063-4.54-4.562V26.01
		c0-0.652,0.543-1.151,1.13-1.151c0.674,0,1.15,0.5,1.15,1.151v5.126c0,1.26,1.021,2.215,2.26,2.215
		c1.239,0,2.235-0.955,2.235-2.215V26.01c0-0.652,0.479-1.151,1.131-1.151C50.388,24.859,50.931,25.359,50.931,26.011z"/>
	<path fill="#231F20" d="M6.449,60.589V47.773c0-0.674,0.521-1.194,1.194-1.194s1.216,0.521,1.216,1.194v5.213h5.625v-5.213
		c0-0.674,0.521-1.194,1.194-1.194c0.674,0,1.216,0.521,1.216,1.194v12.814c0,0.673-0.542,1.194-1.216,1.194
		c-0.673,0-1.194-0.521-1.194-1.194v-5.213H8.859v5.213c0,0.673-0.543,1.194-1.216,1.194C6.97,61.783,6.449,61.262,6.449,60.589z"/>
	<path fill="#231F20" d="M30.797,56.375v4.257c0,0.63-0.521,1.151-1.151,1.151c-0.565,0-1-0.412-1.129-0.934
		c-0.826,0.586-1.803,0.934-2.889,0.934c-1.477,0-2.758-0.608-3.692-1.585c-0.934-0.999-1.477-2.347-1.477-3.823
		c0-1.498,0.542-2.846,1.477-3.822c0.935-0.998,2.215-1.63,3.692-1.63c1.086,0,2.063,0.37,2.889,0.956
		c0.129-0.543,0.564-0.956,1.129-0.956c0.629,0,1.151,0.521,1.151,1.175V56.375z M28.495,56.375c0-0.912-0.326-1.693-0.847-2.236
		c-0.521-0.587-1.261-0.892-2.021-0.892c-0.782,0-1.521,0.305-2.02,0.892c-0.521,0.543-0.825,1.324-0.825,2.236
		c0,0.891,0.303,1.672,0.825,2.238c0.5,0.542,1.238,0.847,2.02,0.847c0.76,0,1.499-0.305,2.021-0.847
		C28.169,58.047,28.495,57.266,28.495,56.375z"/>
	<path fill="#231F20" d="M35.055,64.693v-8.297c0,0,0,0,0-0.021v-4.3c0-0.632,0.521-1.152,1.151-1.152
		c0.608,0,1.108,0.413,1.195,0.892c0.803-0.521,1.846-0.892,2.954-0.892c2.888,0,5.254,2.478,5.254,5.452
		c0,2.977-2.366,5.387-5.254,5.387c-1.087,0-2.13-0.326-2.912-0.891v3.822c0,0.608-0.542,1.173-1.237,1.173
		C35.576,65.866,35.055,65.303,35.055,64.693z M37.443,56.375c0,0.848,0.283,1.672,0.848,2.172c0.542,0.608,1.26,0.913,2.064,0.913
		c0.737,0,1.476-0.305,2.041-0.913c0.5-0.5,0.848-1.324,0.848-2.172s-0.348-1.629-0.848-2.193c-0.564-0.586-1.303-0.891-2.041-0.891
		c-0.804,0-1.521,0.305-2.064,0.891C37.726,54.746,37.443,55.527,37.443,56.375z"/>
	<path fill="#231F20" d="M49.39,64.693v-8.297c0,0,0,0,0-0.021v-4.3c0-0.632,0.521-1.152,1.149-1.152
		c0.607,0,1.107,0.413,1.195,0.892c0.803-0.521,1.846-0.892,2.953-0.892c2.889,0,5.255,2.478,5.255,5.452
		c0,2.977-2.366,5.387-5.255,5.387c-1.087,0-2.129-0.326-2.911-0.891v3.822c0,0.608-0.543,1.173-1.237,1.173
		C49.911,65.866,49.39,65.303,49.39,64.693z M51.778,56.375c0,0.848,0.283,1.672,0.848,2.172c0.543,0.608,1.261,0.913,2.063,0.913
		c0.737,0,1.478-0.305,2.041-0.913c0.5-0.5,0.849-1.324,0.849-2.172s-0.349-1.629-0.849-2.193c-0.563-0.586-1.304-0.891-2.041-0.891
		c-0.804,0-1.521,0.305-2.063,0.891C52.061,54.746,51.778,55.527,51.778,56.375z"/>
	<path fill="#231F20" d="M71.37,52.075v5.126v3.084c0,2.91-2.302,5.189-5.189,5.189c-0.781,0-1.586-0.218-2.237-0.543
		c-0.606-0.261-0.825-0.934-0.565-1.541c0.283-0.521,1.021-0.761,1.543-0.479c0.412,0.196,0.826,0.306,1.261,0.306
		c1.28-0.021,2.366-0.848,2.715-1.978c-0.608,0.348-1.349,0.521-2.063,0.521c-2.498,0-4.539-2.064-4.539-4.561v-5.126
		c0-0.652,0.543-1.152,1.129-1.152c0.675,0,1.15,0.5,1.15,1.152v5.126c0,1.26,1.021,2.215,2.26,2.215
		c1.237,0,2.237-0.955,2.237-2.215v-5.126c0-0.652,0.478-1.152,1.13-1.152C70.827,50.923,71.37,51.423,71.37,52.075z"/>
	<path fill="#231F20" d="M75.476,58.7c0.892,0,1.63,0.737,1.63,1.628c0,0.892-0.738,1.607-1.63,1.607
		c-0.89,0-1.606-0.717-1.606-1.607S74.586,58.7,75.476,58.7z"/>
</g>
</svg>
