<?xml version="1.0" encoding="UTF-8"?>
<svg xmlns="http://www.w3.org/2000/svg" xmlns:xlink="http://www.w3.org/1999/xlink" width="16pt" height="16pt" viewBox="0 0 16 16" version="1.1">
<g id="surface1">
<path style=" stroke:none;fill-rule:nonzero;fill:rgb(11.372549%,63.137255%,95.294118%);fill-opacity:1;" d="M 2.398438 0 L 13.601562 0 C 14.925781 0 16 1.074219 16 2.398438 L 16 13.601562 C 16 14.925781 14.925781 16 13.601562 16 L 2.398438 16 C 1.074219 16 0 14.925781 0 13.601562 L 0 2.398438 C 0 1.074219 1.074219 0 2.398438 0 Z M 2.398438 0 "/>
<path style=" stroke:none;fill-rule:nonzero;fill:rgb(100%,100%,100%);fill-opacity:1;" d="M 13.65625 4.75 C 13.285156 4.996094 12.851562 5.125 12.40625 5.125 C 12.882812 4.84375 13.238281 4.398438 13.40625 3.875 C 13.011719 4.207031 12.515625 4.394531 12 4.40625 C 11.300781 3.691406 10.214844 3.523438 9.332031 3.992188 C 8.449219 4.460938 7.984375 5.457031 8.1875 6.4375 C 6.417969 6.34375 4.769531 5.503906 3.65625 4.125 C 3.097656 5.136719 3.394531 6.40625 4.34375 7.0625 C 3.996094 7.066406 3.65625 6.992188 3.34375 6.84375 C 3.359375 7.878906 4.082031 8.769531 5.09375 9 C 4.765625 9.085938 4.425781 9.097656 4.09375 9.03125 C 4.386719 9.945312 5.226562 10.574219 6.1875 10.59375 C 5.199219 11.195312 4.0625 11.507812 2.90625 11.5 C 4.882812 12.789062 7.414062 12.855469 9.457031 11.675781 C 11.496094 10.492188 12.699219 8.261719 12.5625 5.90625 C 12.976562 5.570312 13.34375 5.179688 13.65625 4.75 "/>
</g>
</svg>
