<?xml version="1.0" encoding="utf-8"?>
<!-- Generator: Adobe Illustrator 16.0.0, SVG Export Plug-In . SVG Version: 6.00 Build 0)  -->
<!DOCTYPE svg PUBLIC "-//W3C//DTD SVG 1.1//EN" "http://www.w3.org/Graphics/SVG/1.1/DTD/svg11.dtd">
<svg version="1.1" id="Layer_1" xmlns="http://www.w3.org/2000/svg" xmlns:xlink="http://www.w3.org/1999/xlink" x="0px" y="0px"
	 width="594.853px" height="430px" viewBox="93.485 95.934 594.853 430" enable-background="new 93.485 95.934 594.853 430"
	 xml:space="preserve">
<g>
	<path fill="#FFFFFF" d="M93.485,95.934h24.429l18.85,83.275l23.292-83.275h20.649l23.636,83.275l18.671-83.275h24.43
		l-29.393,130.455h-23.819l-24.032-84.339l-23.59,84.339h-23.591L93.485,95.934z"/>
	<path fill="#FFFFFF" d="M360.825,185.15h-77.777c1.123,6.86,4.125,12.314,9.002,16.363c4.878,4.05,11.1,6.074,18.667,6.074
		c9.046,0,16.821-3.161,23.325-9.489l20.396,9.578c-5.084,7.213-11.173,12.549-18.268,16.007c-7.095,3.458-15.52,5.188-25.276,5.188
		c-15.136,0-27.463-4.774-36.98-14.322c-9.521-9.548-14.279-21.507-14.279-35.873c0-14.721,4.745-26.945,14.234-36.671
		c9.489-9.725,21.387-14.588,35.696-14.588c15.194,0,27.55,4.863,37.07,14.588c9.519,9.726,14.278,22.57,14.278,38.534
		L360.825,185.15z M336.614,166.083c-1.599-5.38-4.753-9.755-9.461-13.125c-4.708-3.37-10.171-5.055-16.391-5.055
		c-6.751,0-12.673,1.893-17.766,5.675c-3.199,2.366-6.159,6.534-8.883,12.505H336.614z"/>
	<path fill="#FFFFFF" d="M195.161,297.94l-20.154,11.085c-3.788-3.96-7.532-6.71-11.232-8.248c-3.7-1.535-8.036-2.305-13.008-2.305
		c-9.057,0-16.383,2.701-21.975,8.102c-5.595,5.401-8.39,12.323-8.39,20.764c0,8.206,2.692,14.908,8.08,20.102
		c5.386,5.194,12.459,7.79,21.22,7.79c10.834,0,19.268-3.693,25.305-11.085l19.091,13.071
		c-10.347,13.459-24.951,20.186-43.81,20.186c-16.97,0-30.257-5.025-39.863-15.076c-9.608-10.05-14.412-21.815-14.412-35.296
		c0-9.342,2.335-17.943,7.006-25.808c4.67-7.861,11.188-14.04,19.555-18.535c8.366-4.492,17.722-6.74,28.069-6.74
		c9.578,0,18.181,1.907,25.808,5.721C184.076,285.48,190.313,290.905,195.161,297.94z"/>
	<path fill="#FFFFFF" d="M211.302,278.429h20.752v12.15c2.246-4.789,5.232-8.425,8.957-10.909c3.725-2.483,7.804-3.725,12.239-3.725
		c3.133,0,6.414,0.829,9.844,2.483l-7.538,20.841c-2.838-1.419-5.174-2.128-7.007-2.128c-3.724,0-6.873,2.305-9.444,6.917
		c-2.572,4.612-3.858,13.657-3.858,27.139l0.089,4.698v39.023h-24.034V278.429z"/>
	<path fill="#FFFFFF" d="M371.733,333.68h-77.777c1.123,6.859,4.125,12.314,9.002,16.363c4.878,4.05,11.1,6.074,18.667,6.074
		c9.045,0,16.819-3.162,23.324-9.488l20.397,9.577c-5.086,7.214-11.174,12.549-18.27,16.007c-7.094,3.458-15.519,5.188-25.274,5.188
		c-15.136,0-27.464-4.773-36.982-14.323c-9.52-9.548-14.278-21.507-14.278-35.873c0-14.722,4.745-26.945,14.234-36.671
		c9.49-9.724,21.387-14.588,35.696-14.588c15.194,0,27.551,4.865,37.071,14.588c9.518,9.726,14.278,22.571,14.278,38.534
		L371.733,333.68z M347.523,314.613c-1.599-5.38-4.753-9.756-9.461-13.126c-4.708-3.37-10.171-5.055-16.391-5.055
		c-6.751,0-12.673,1.893-17.766,5.676c-3.199,2.366-6.159,6.533-8.884,12.505H347.523z"/>
	<path fill="#FFFFFF" d="M462.546,278.429h24.211v96.491h-24.211v-10.2c-4.726,4.494-9.464,7.731-14.218,9.711
		c-4.755,1.98-9.905,2.971-15.457,2.971c-12.459,0-23.237-4.834-32.333-14.498c-9.094-9.667-13.64-21.684-13.64-36.052
		c0-14.899,4.4-27.107,13.199-36.626c8.8-9.52,19.487-14.279,32.067-14.279c5.785,0,11.218,1.095,16.296,3.281
		c5.079,2.188,9.771,5.469,14.085,9.844V278.429L462.546,278.429z M437.093,298.295c-7.482,0-13.698,2.646-18.648,7.938
		c-4.949,5.292-7.424,12.076-7.424,20.354c0,8.337,2.518,15.195,7.557,20.574c5.038,5.382,11.239,8.072,18.606,8.072
		c7.601,0,13.906-2.646,18.913-7.938c5.009-5.29,7.514-12.224,7.514-20.796c0-8.395-2.505-15.195-7.514-20.398
		C451.09,300.896,444.756,298.295,437.093,298.295z"/>
	<path fill="#FFFFFF" d="M514.163,242.867h24.21v35.563h14.368v20.841h-14.368v75.649h-24.21v-75.649h-12.417v-20.841h12.417
		V242.867L514.163,242.867z"/>
	<path fill="#FFFFFF" d="M662.354,333.68h-77.776c1.122,6.859,4.124,12.314,9,16.363c4.879,4.05,11.102,6.074,18.67,6.074
		c9.043,0,16.82-3.162,23.322-9.488l20.397,9.577c-5.086,7.214-11.173,12.549-18.269,16.007c-7.095,3.46-15.52,5.188-25.276,5.188
		c-15.134,0-27.462-4.773-36.98-14.323c-9.519-9.548-14.277-21.507-14.277-35.873c0-14.722,4.745-26.945,14.232-36.671
		c9.49-9.724,21.388-14.588,35.696-14.588c15.194,0,27.551,4.865,37.07,14.588c9.519,9.726,14.278,22.571,14.278,38.534
		L662.354,333.68z M638.143,314.613c-1.599-5.38-4.752-9.756-9.461-13.126c-4.708-3.37-10.17-5.055-16.392-5.055
		c-6.751,0-12.674,1.893-17.767,5.676c-3.197,2.366-6.158,6.533-8.882,12.505H638.143z"/>
	<path fill="#FFFFFF" d="M124.746,389.713v47.891c4.375-4.375,9.105-7.657,14.19-9.846c5.084-2.187,10.523-3.281,16.318-3.281
		c12.593,0,23.293,4.76,32.104,14.279c8.809,9.52,13.214,21.728,13.214,36.626c0,14.367-4.553,26.384-13.657,36.051
		c-9.107,9.666-19.896,14.501-32.371,14.501c-5.559,0-10.731-0.991-15.52-2.972s-9.548-5.217-14.279-9.712v10.199h-24.033V389.713
		H124.746z M150.198,446.826c-7.627,0-13.954,2.602-18.979,7.804c-5.026,5.204-7.539,12.003-7.539,20.397
		c0,8.573,2.513,15.507,7.539,20.796c5.025,5.293,11.352,7.938,18.979,7.938c7.39,0,13.614-2.689,18.668-8.07
		c5.055-5.381,7.583-12.239,7.583-20.575c0-8.276-2.483-15.063-7.45-20.354C164.034,449.473,157.766,446.826,150.198,446.826z"/>
	<path fill="#FFFFFF" d="M214.938,426.96h20.752v12.15c2.246-4.79,5.232-8.426,8.958-10.91c3.724-2.482,7.804-3.724,12.239-3.724
		c3.133,0,6.415,0.828,9.843,2.483l-7.537,20.842c-2.838-1.419-5.174-2.13-7.006-2.13c-3.725,0-6.874,2.307-9.445,6.919
		c-2.572,4.61-3.857,13.656-3.857,27.137l0.089,4.7v39.021h-24.034V426.96z"/>
	<path fill="#FFFFFF" d="M349.917,426.96h24.21v96.489h-24.21V513.25c-4.725,4.495-9.464,7.731-14.217,9.712
		c-4.754,1.98-9.906,2.972-15.458,2.972c-12.46,0-23.239-4.835-32.333-14.501c-9.095-9.667-13.641-21.683-13.641-36.051
		c0-14.898,4.4-27.106,13.199-36.626c8.799-9.52,19.488-14.279,32.067-14.279c5.786,0,11.218,1.095,16.297,3.281
		c5.079,2.188,9.773,5.469,14.085,9.846L349.917,426.96L349.917,426.96z M324.465,446.826c-7.483,0-13.7,2.646-18.65,7.938
		c-4.949,5.291-7.424,12.076-7.424,20.353c0,8.336,2.518,15.196,7.556,20.576c5.04,5.38,11.24,8.069,18.607,8.069
		c7.602,0,13.907-2.646,18.914-7.937c5.008-5.291,7.513-12.223,7.513-20.798c0-8.395-2.505-15.193-7.513-20.396
		C338.46,449.428,332.125,446.826,324.465,446.826z"/>
	<path fill="#FFFFFF" d="M398.605,426.96h24.212v9.889c5.49-4.628,10.462-7.848,14.919-9.657c4.459-1.809,9.019-2.715,13.686-2.715
		c9.562,0,17.68,3.341,24.353,10.021c5.608,5.676,8.413,14.072,8.413,25.187v63.765h-23.946v-42.254
		c0-11.515-0.517-19.161-1.55-22.94c-1.031-3.781-2.83-6.659-5.396-8.639c-2.567-1.979-5.734-2.969-9.51-2.969
		c-4.895,0-9.098,1.641-12.605,4.918c-3.512,3.279-5.943,7.811-7.303,13.598c-0.709,3.013-1.06,9.537-1.06,19.575v38.711h-24.212
		V426.96z"/>
	<path fill="#FFFFFF" d="M578.812,389.713h24.212v133.736h-24.212V513.25c-4.725,4.495-9.465,7.731-14.216,9.712
		c-4.756,1.98-9.908,2.972-15.458,2.972c-12.46,0-23.237-4.835-32.333-14.501c-9.095-9.667-13.641-21.683-13.641-36.051
		c0-14.898,4.4-27.106,13.198-36.626c8.8-9.52,19.488-14.279,32.067-14.279c5.786,0,11.219,1.095,16.297,3.281
		c5.078,2.188,9.773,5.469,14.085,9.846V389.713z M553.362,446.826c-7.483,0-13.701,2.646-18.65,7.938
		c-4.95,5.291-7.424,12.076-7.424,20.353c0,8.336,2.518,15.196,7.555,20.576c5.04,5.38,11.24,8.069,18.606,8.069
		c7.602,0,13.907-2.646,18.915-7.937s7.514-12.223,7.514-20.798c0-8.395-2.506-15.193-7.514-20.396
		C567.355,449.428,561.022,446.826,553.362,446.826z"/>
	<path fill="#FFFFFF" d="M686.564,440.441l-14.986,14.987c-6.091-6.031-11.617-9.046-16.584-9.046c-2.721,0-4.852,0.576-6.386,1.729
		c-1.539,1.152-2.307,2.587-2.307,4.302c0,1.301,0.488,2.496,1.464,3.592c0.977,1.095,3.384,2.586,7.229,4.479l8.868,4.434
		c9.342,4.611,15.756,9.311,19.245,14.102c3.487,4.787,5.23,10.406,5.23,16.849c0,8.574-3.145,15.728-9.443,21.462
		c-6.298,5.734-14.738,8.604-25.32,8.604c-14.071,0-25.306-5.499-33.7-16.497l14.9-16.229c2.838,3.312,6.162,5.985,9.976,8.025
		c3.815,2.04,7.199,3.06,10.155,3.06c3.192,0,5.765-0.768,7.716-2.306c1.951-1.536,2.926-3.311,2.926-5.321
		c0-3.724-3.518-7.36-10.553-10.908l-8.159-4.079c-15.608-7.862-23.411-17.706-23.411-29.531c0-7.628,2.939-14.146,8.822-19.556
		c5.883-5.409,13.404-8.114,22.571-8.114c6.266,0,12.162,1.374,17.691,4.124C678.036,431.35,682.721,435.297,686.564,440.441z"/>
</g>
</svg>
