<?xml version="1.0" encoding="utf-8"?>
<!-- Generator: Adobe Illustrator 16.0.0, SVG Export Plug-In . SVG Version: 6.00 Build 0)  -->
<!DOCTYPE svg PUBLIC "-//W3C//DTD SVG 1.1//EN" "http://www.w3.org/Graphics/SVG/1.1/DTD/svg11.dtd">
<svg version="1.1" id="Layer_1" xmlns="http://www.w3.org/2000/svg" xmlns:xlink="http://www.w3.org/1999/xlink" x="0px" y="0px"
	 width="586.723px" height="190.214px" viewBox="0 0 586.723 190.214" enable-background="new 0 0 586.723 190.214"
	 xml:space="preserve">
<g>
	<path fill="#FFFFFF" d="M0,1.944h14.473l11.168,49.338l13.8-49.338h12.234l14.003,49.338L76.741,1.944h14.474L73.801,79.235H59.689
		L45.45,29.267L31.473,79.235H17.497L0,1.944z"/>
	<path fill="#FFFFFF" d="M101.172,0h14.239v27.848c2.802-2.417,5.622-4.229,8.459-5.438s5.709-1.813,8.617-1.813
		c5.675,0,10.456,1.962,14.344,5.885c3.328,3.398,4.992,8.39,4.992,14.975v37.778h-14.134V54.172c0-6.621-0.315-11.104-0.946-13.451
		c-0.63-2.346-1.708-4.098-3.231-5.254c-1.523-1.156-3.407-1.734-5.648-1.734c-2.908,0-5.404,0.964-7.488,2.89
		c-2.084,1.927-3.529,4.554-4.334,7.881c-0.42,1.717-0.631,5.64-0.631,11.77v22.961h-14.239V0z"/>
	<path fill="#FFFFFF" d="M192.544,20.597c5.394,0,10.464,1.349,15.211,4.046c4.746,2.698,8.449,6.358,11.113,10.981
		c2.66,4.624,3.992,9.615,3.992,14.975c0,5.395-1.34,10.439-4.02,15.133c-2.68,4.694-6.332,8.363-10.955,11.008
		c-4.624,2.644-9.72,3.967-15.29,3.967c-8.197,0-15.194-2.916-20.991-8.749c-5.798-5.832-8.696-12.917-8.696-21.253
		c0-8.933,3.275-16.375,9.825-22.331C178.48,23.189,185.083,20.597,192.544,20.597z M192.781,34.1c-4.457,0-8.167,1.55-11.132,4.65
		c-2.965,3.1-4.447,7.067-4.447,11.901c0,4.975,1.465,9.003,4.395,12.085c2.929,3.083,6.64,4.624,11.131,4.624
		s8.228-1.559,11.211-4.677c2.981-3.117,4.473-7.127,4.473-12.032c0-4.904-1.465-8.888-4.395-11.954
		C201.087,35.633,197.342,34.1,192.781,34.1z"/>
	<path fill="#FFFFFF" d="M260.403,1.944h14.473l11.168,49.338l13.801-49.338h12.233l14.004,49.338l11.063-49.338h14.473
		l-17.414,77.291h-14.112l-14.238-49.968l-13.977,49.968H277.9L260.403,1.944z"/>
	<path fill="#FFFFFF" d="M361.575,0h14.24v27.848c2.801-2.417,5.621-4.229,8.459-5.438s5.709-1.813,8.617-1.813
		c5.674,0,10.455,1.962,14.344,5.885c3.328,3.398,4.992,8.39,4.992,14.975v37.778h-14.135V54.172c0-6.621-0.314-11.104-0.945-13.451
		c-0.631-2.346-1.707-4.098-3.232-5.254c-1.523-1.156-3.406-1.734-5.648-1.734c-2.906,0-5.402,0.964-7.486,2.89
		c-2.084,1.927-3.529,4.554-4.336,7.881c-0.42,1.717-0.629,5.64-0.629,11.77v22.961h-14.24V0z"/>
	<path fill="#FFFFFF" d="M483.37,54.802h-46.08c0.666,4.064,2.443,7.295,5.334,9.694c2.891,2.4,6.576,3.599,11.061,3.599
		c5.359,0,9.965-1.874,13.818-5.622l12.086,5.675c-3.014,4.274-6.621,7.435-10.824,9.484s-9.195,3.074-14.975,3.074
		c-8.969,0-16.271-2.828-21.912-8.486c-5.639-5.656-8.459-12.742-8.459-21.253c0-8.722,2.811-15.964,8.434-21.727
		c5.623-5.762,12.672-8.644,21.148-8.644c9.002,0,16.322,2.882,21.963,8.644c5.641,5.762,8.459,13.372,8.459,22.83L483.37,54.802z
		 M469.026,43.505c-0.947-3.187-2.816-5.78-5.605-7.776s-6.025-2.995-9.711-2.995c-4,0-7.508,1.121-10.525,3.363
		c-1.895,1.401-3.648,3.871-5.264,7.408H469.026z"/>
	<path fill="#FFFFFF" d="M491.62,22.068h12.295v7.199c1.33-2.837,3.1-4.992,5.307-6.463s4.625-2.207,7.252-2.207
		c1.855,0,3.799,0.491,5.832,1.471l-4.467,12.348c-1.682-0.841-3.064-1.261-4.15-1.261c-2.207,0-4.072,1.366-5.596,4.098
		s-2.285,8.092-2.285,16.078l0.051,2.785v23.119H491.62V22.068z"/>
	<path fill="#FFFFFF" d="M586.67,54.802h-46.08c0.664,4.064,2.443,7.295,5.332,9.694c2.891,2.4,6.576,3.599,11.061,3.599
		c5.359,0,9.965-1.874,13.82-5.622l12.084,5.675c-3.014,4.274-6.621,7.435-10.824,9.484s-9.195,3.074-14.975,3.074
		c-8.967,0-16.271-2.828-21.91-8.486c-5.641-5.656-8.459-12.742-8.459-21.253c0-8.722,2.811-15.964,8.434-21.727
		c5.621-5.762,12.67-8.644,21.148-8.644c9.002,0,16.322,2.882,21.963,8.644c5.639,5.762,8.459,13.372,8.459,22.83L586.67,54.802z
		 M572.327,43.505c-0.947-3.187-2.816-5.78-5.605-7.776c-2.791-1.997-6.027-2.995-9.711-2.995c-4,0-7.51,1.121-10.525,3.363
		c-1.896,1.401-3.65,3.871-5.264,7.408H572.327z"/>
	<path fill="#FFFFFF" d="M0,92.011h14.473l11.168,49.337l13.8-49.337h12.234l14.003,49.337l11.062-49.337h14.474l-17.414,77.291
		H59.689L45.45,119.334l-13.977,49.968H17.497L0,92.011z"/>
	<path fill="#FFFFFF" d="M101.172,90.067h14.239v27.848c2.802-2.417,5.622-4.229,8.459-5.438c2.837-1.209,5.709-1.813,8.617-1.813
		c5.675,0,10.456,1.962,14.344,5.885c3.328,3.398,4.992,8.39,4.992,14.976v37.777h-14.134v-25.063
		c0-6.621-0.315-11.104-0.946-13.451c-0.63-2.346-1.708-4.098-3.231-5.254c-1.523-1.156-3.407-1.734-5.648-1.734
		c-2.908,0-5.404,0.964-7.488,2.891c-2.084,1.926-3.529,4.553-4.334,7.881c-0.42,1.717-0.631,5.641-0.631,11.77v22.961h-14.239
		V90.067z"/>
	<path fill="#FFFFFF" d="M207.887,112.136h14.344v57.166h-14.344v-6.041c-2.799,2.662-5.607,4.58-8.423,5.752
		c-2.816,1.174-5.869,1.762-9.158,1.762c-7.382,0-13.768-2.865-19.156-8.592s-8.082-12.848-8.082-21.359
		c0-8.826,2.606-16.06,7.82-21.699c5.213-5.64,11.545-8.46,18.998-8.46c3.429,0,6.647,0.648,9.656,1.944
		c3.009,1.297,5.791,3.24,8.345,5.832V112.136z M192.808,123.905c-4.435,0-8.117,1.568-11.05,4.702
		c-2.933,3.136-4.399,7.155-4.399,12.06c0,4.938,1.492,9.002,4.477,12.189c2.985,3.188,6.659,4.781,11.023,4.781
		c4.504,0,8.24-1.566,11.207-4.703c2.967-3.135,4.452-7.242,4.452-12.32c0-4.975-1.484-9.002-4.452-12.086
		C201.099,125.446,197.346,123.905,192.808,123.905z"/>
	<path fill="#FFFFFF" d="M238.468,91.065h14.344v21.07h8.512v12.348h-8.512v44.818h-14.344v-44.818h-7.356v-12.348h7.356V91.065z"/>
	<path fill="#FFFFFF" d="M294.819,92.011h14.473l11.167,49.337l13.801-49.337h12.234l14.004,49.337l11.063-49.337h14.473
		l-17.414,77.291h-14.111l-14.238-49.968l-13.977,49.968h-13.977L294.819,92.011z"/>
	<path fill="#FFFFFF" d="M395.991,90.067h14.24v27.848c2.801-2.417,5.621-4.229,8.459-5.438c2.838-1.209,5.709-1.813,8.617-1.813
		c5.674,0,10.455,1.962,14.344,5.885c3.328,3.398,4.992,8.39,4.992,14.976v37.777h-14.135v-25.063
		c0-6.621-0.314-11.104-0.945-13.451c-0.631-2.346-1.707-4.098-3.232-5.254c-1.523-1.156-3.406-1.734-5.648-1.734
		c-2.906,0-5.402,0.964-7.486,2.891c-2.084,1.926-3.529,4.553-4.336,7.881c-0.42,1.717-0.629,5.641-0.629,11.77v22.961h-14.24
		V90.067z"/>
	<path fill="#FFFFFF" d="M454.17,112.136h14.658l14.85,35.869l16.385-35.869h14.701l-35.803,78.078h-14.814l11.754-25.178
		L454.17,112.136z"/>
</g>
</svg>
