<svg xmlns="http://www.w3.org/2000/svg" xmlns:xlink="http://www.w3.org/1999/xlink" x="0px" y="0px" width="16px" height="16px" viewBox="0 0 16 16" enable-background="new 0 0 16 16" xml:space="preserve">
<g>
	<path fill="#FFFFFF" d="M2.398,0h11.203C14.926,0,16,1.074,16,2.398v11.203C16,14.926,14.926,16,13.602,16H2.398
		C1.074,16,0,14.926,0,13.602V2.398C0,1.074,1.074,0,2.398,0z"/>
	<path fill="#6D6E71" d="M1.843,2.248h12.314C15.174,2.248,16,3.072,16,4.091v7.818c0,1.017-0.826,1.843-1.843,1.843H1.843
		C0.826,13.752,0,12.926,0,11.909V4.091C0,3.072,0.826,2.248,1.843,2.248z"/>
	<path fill="none" stroke="#FFFFFF" d="M15.5,2.607L8.548,9.519c-0.296,0.337-0.8,0.337-1.096,0L0.5,2.607 M0.5,13.393L5.935,8
		 M15.5,13.393L10.064,8"/>
</g>
</svg>
