<?xml version="1.0" encoding="utf-8"?>
<!-- Generator: Adobe Illustrator 16.0.0, SVG Export Plug-In . SVG Version: 6.00 Build 0)  -->
<!DOCTYPE svg PUBLIC "-//W3C//DTD SVG 1.1//EN" "http://www.w3.org/Graphics/SVG/1.1/DTD/svg11.dtd">
<svg version="1.1" id="Layer_1" xmlns="http://www.w3.org/2000/svg" xmlns:xlink="http://www.w3.org/1999/xlink" x="0px" y="0px"
	 width="32px" height="32px" viewBox="-8 -8 32 32" enable-background="new -8 -8 32 32" xml:space="preserve">
<g>
	<circle fill="#FFFFFF" stroke="#ffffff" cx="8" cy="8" r="13.084"/>
	<path fill="#3B5998" d="M2.398,0h11.204C14.926,0,16,1.074,16,2.398v11.204C16,14.926,14.926,16,13.602,16H2.398
		C1.074,16,0,14.926,0,13.602V2.398C0,1.074,1.074,0,2.398,0z"/>
	<path fill="#FFFFFF" d="M10.313,16v-5.938h2l0.281-2.313h-2.281V6.281c0-0.688,0.188-1.125,1.156-1.125h1.219V3.094
		C12.469,3.063,11.75,3,10.906,3C9.125,3,7.938,4.063,7.938,6.063V7.75h-2v2.313h2V16H10.313z"/>
</g>
</svg>
