<svg xmlns="http://www.w3.org/2000/svg" xmlns:xlink="http://www.w3.org/1999/xlink" x="0px" y="0px" width="16px" height="16px" viewBox="0 0 16 16" enable-background="new 0 0 16 16" xml:space="preserve">
<g>
	<path fill="#6D6E71" d="M2.398,0h11.203C14.926,0,16,1.074,16,2.398v11.203C16,14.926,14.926,16,13.602,16H2.398
		C1.074,16,0,14.926,0,13.602V2.398C0,1.074,1.074,0,2.398,0z"/>
	<path fill="#FFFFFF" d="M10.313,16v-5.938h2l0.281-2.313h-2.281V6.281c0-0.688,0.188-1.125,1.156-1.125h1.219V3.094
		C12.469,3.063,11.75,3,10.906,3C9.125,3,7.938,4.063,7.938,6.063V7.75h-2v2.313h2V16H10.313z"/>
</g>
</svg>
