<svg xmlns="http://www.w3.org/2000/svg" xmlns:xlink="http://www.w3.org/1999/xlink" x="0px" y="0px" width="16px" height="16px" viewBox="0 0 16 16" enable-background="new 0 0 16 16" xml:space="preserve">
<g>
	<path fill="#FFFFFF" d="M2.398,0h11.203C14.926,0,16,1.074,16,2.398v11.203C16,14.926,14.926,16,13.602,16H2.398
		C1.074,16,0,14.926,0,13.602V2.398C0,1.074,1.074,0,2.398,0z"/>
	<path fill="none" stroke="#6D6E71" d="M4.454,0.5h7.093c2.185,0,3.953,1.767,3.953,3.954v7.093c0,2.185-1.769,3.953-3.953,3.953
		H4.454c-2.187,0-3.954-1.769-3.954-3.953V4.454C0.5,2.267,2.267,0.5,4.454,0.5z"/>
	<path fill="none" stroke="#6D6E71" d="M11.498,8c0,1.933-1.565,3.498-3.498,3.498S4.504,9.933,4.504,8S6.067,4.504,8,4.504
		S11.498,6.067,11.498,8z"/>
	<path fill="none" stroke="#6D6E71" stroke-width="1.5" stroke-miterlimit="10" d="M12.908,3.591c0,0.276-0.225,0.499-0.499,0.499
		c-0.275,0-0.501-0.223-0.501-0.499c0-0.276,0.226-0.499,0.501-0.499C12.684,3.092,12.908,3.315,12.908,3.591z"/>
</g>
</svg>
