<?xml version="1.0" encoding="utf-8"?>
<!-- Generator: Adobe Illustrator 16.0.0, SVG Export Plug-In . SVG Version: 6.00 Build 0)  -->
<!DOCTYPE svg PUBLIC "-//W3C//DTD SVG 1.1//EN" "http://www.w3.org/Graphics/SVG/1.1/DTD/svg11.dtd">
<svg version="1.1" id="Layer_1" xmlns="http://www.w3.org/2000/svg" xmlns:xlink="http://www.w3.org/1999/xlink" x="0px" y="0px"
	 width="32px" height="32px" viewBox="-8 -8 32 32" enable-background="new -8 -8 32 32" xml:space="preserve">
<circle fill="#FFFFFF" stroke="#ffffff" cx="8.001" cy="8.001" r="13.085"/>
<g>
	<path fill="none" d="M2.398,0h11.204C14.926,0,16,1.074,16,2.398v11.204C16,14.926,14.926,16,13.602,16H2.398
		C1.074,16,0,14.926,0,13.602V2.398C0,1.074,1.074,0,2.398,0z"/>
	<path fill="#E4405F" stroke="#E4405F" d="M4.454,0.5h7.093c2.186,0,3.953,1.767,3.953,3.954v7.093c0,2.186-1.77,3.953-3.953,3.953
		H4.454c-2.187,0-3.954-1.77-3.954-3.953V4.454C0.5,2.267,2.267,0.5,4.454,0.5z"/>
	<path fill="none" stroke="#FFFFFF" d="M11.498,8c0,1.934-1.564,3.498-3.498,3.498c-1.933,0-3.496-1.564-3.496-3.498
		c0-1.933,1.563-3.496,3.496-3.496C9.934,4.504,11.498,6.067,11.498,8z"/>
	<path fill="none" stroke="#FFFFFF" stroke-width="1.5" stroke-miterlimit="10" d="M12.908,3.591c0,0.276-0.225,0.499-0.499,0.499
		c-0.275,0-0.501-0.223-0.501-0.499c0-0.276,0.226-0.499,0.501-0.499C12.684,3.092,12.908,3.315,12.908,3.591z"/>
</g>
</svg>
