<svg xmlns="http://www.w3.org/2000/svg" xmlns:xlink="http://www.w3.org/1999/xlink" x="0px" y="0px" width="16px" height="16px" viewBox="0 0 16 16" enable-background="new 0 0 16 16" xml:space="preserve">
<g>
	<path fill="#FFFFFF" d="M2.398,0h11.203C14.926,0,16,1.074,16,2.398v11.203C16,14.926,14.926,16,13.602,16H2.398
		C1.074,16,0,14.926,0,13.602V2.398C0,1.074,1.074,0,2.398,0z"/>
	<path fill="#6D6E71" d="M14.156,11.496c-0.438-0.395-0.96-0.745-1.441-1.004c-1.008-0.701-1.884-0.744-2.581,0.259
		c-0.438,0.613-1.008,0.701-1.621,0.438c-1.706-0.785-2.975-1.88-3.675-3.586C4.49,6.902,4.49,6.248,5.276,5.766
		C5.67,5.503,6.108,5.152,6.064,4.541C6.021,3.753,4.139,1.128,3.351,0.866c-0.348-0.087-0.611-0.087-0.961,0
		C0.595,1.479-0.105,2.878,0.551,4.585c2.035,4.96,5.999,8.874,10.981,10.85l0.744,0.219c1.139,0,2.493-1.096,2.931-2.187
		C15.602,12.416,14.77,11.978,14.156,11.496z"/>
	<path fill="none" stroke="#6D6E71" stroke-linecap="round" d="M8.601,2.747c0,0,1.792-0.043,3.15,1.313
		c1.357,1.312,1.183,3.237,1.183,3.237 M9.126,4.541c0,0,0.789-0.087,1.442,0.611c0.657,0.657,0.569,1.487,0.569,1.487 M8.034,0.997
		c0,0,2.797-0.131,4.856,1.925c2.055,2.099,1.88,4.988,1.88,4.988"/>
</g>
</svg>
