<?xml version="1.0" encoding="utf-8"?>
<!-- Generator: Adobe Illustrator 16.0.0, SVG Export Plug-In . SVG Version: 6.00 Build 0)  -->
<!DOCTYPE svg PUBLIC "-//W3C//DTD SVG 1.1//EN" "http://www.w3.org/Graphics/SVG/1.1/DTD/svg11.dtd">
<svg version="1.1" id="Layer_1" xmlns="http://www.w3.org/2000/svg" xmlns:xlink="http://www.w3.org/1999/xlink" x="0px" y="0px"
	 width="32px" height="32px" viewBox="-8 -8 32 32" enable-background="new -8 -8 32 32" xml:space="preserve">
<circle fill="#FFFFFF" stroke="#ffffff" cx="8" cy="8" r="13.085"/>
<g>
	<path fill="none" d="M2.398,0h11.204C14.926,0,16,1.074,16,2.398v11.204C16,14.926,14.926,16,13.602,16H2.398
		C1.074,16,0,14.926,0,13.602V2.398C0,1.074,1.074,0,2.398,0z"/>
	<path fill="#3AAF85" d="M13.501,10.833c-0.38-0.342-0.834-0.646-1.25-0.871c-0.873-0.606-1.632-0.646-2.237,0.226
		c-0.38,0.531-0.873,0.607-1.402,0.381c-1.48-0.683-2.58-1.631-3.187-3.11C5.123,6.851,5.123,6.284,5.804,5.867
		c0.341-0.228,0.721-0.532,0.683-1.062C6.45,4.122,4.819,1.847,4.136,1.62c-0.302-0.076-0.53-0.076-0.833,0
		C1.748,2.151,1.141,3.363,1.709,4.843c1.764,4.3,5.199,7.691,9.518,9.404l0.645,0.188c0.986,0,2.162-0.948,2.541-1.896
		C14.753,11.63,14.032,11.251,13.501,10.833z"/>
	<path fill="none" stroke="#3AAF85" stroke-width="0.8667" stroke-linecap="round" d="M8.688,3.25c0,0,1.553-0.037,2.729,1.138
		c1.175,1.137,1.023,2.805,1.023,2.805 M9.141,4.805c0,0,0.685-0.075,1.252,0.53c0.567,0.569,0.491,1.289,0.491,1.289 M8.194,1.733
		c0,0,2.425-0.113,4.208,1.668c1.781,1.82,1.63,4.323,1.63,4.323"/>
</g>
</svg>
