<?xml version="1.0" encoding="utf-8"?>
<!-- Generator: Adobe Illustrator 16.0.0, SVG Export Plug-In . SVG Version: 6.00 Build 0)  -->
<!DOCTYPE svg PUBLIC "-//W3C//DTD SVG 1.1//EN" "http://www.w3.org/Graphics/SVG/1.1/DTD/svg11.dtd">
<svg version="1.1" id="Layer_1" xmlns="http://www.w3.org/2000/svg" xmlns:xlink="http://www.w3.org/1999/xlink" x="0px" y="0px"
	 width="32px" height="32px" viewBox="-8 -8 32 32" enable-background="new -8 -8 32 32" xml:space="preserve">
<circle fill="#FFFFFF" stroke="#ffffff" cx="8" cy="8.123" r="13.085"/>
<path fill="none" d="M2.4,0h11.2C14.926,0,16,1.075,16,2.4v11.2c0,1.326-1.074,2.4-2.4,2.4H2.4C1.075,16,0,14.926,0,13.6V2.4
	C0,1.075,1.075,0,2.4,0z"/>
<path fill="#55ACEE" d="M16,3.102c-0.551,0.366-1.2,0.561-1.859,0.56c0.705-0.416,1.235-1.078,1.486-1.86
	c-0.584,0.495-1.326,0.774-2.093,0.79c-1.289-1.322-3.411-1.35-4.735-0.056c-0.817,0.799-1.172,1.96-0.938,3.08
	c-2.634-0.14-5.086-1.391-6.744-3.443C0.284,3.677,0.727,5.566,2.14,6.545C1.625,6.552,1.116,6.441,0.65,6.218
	C0.677,7.761,1.751,9.086,3.256,9.43C2.771,9.559,2.26,9.572,1.767,9.479c0.437,1.358,1.688,2.289,3.116,2.32
	C3.413,12.689,1.721,13.159,0,13.15c4.303,2.805,10.064,1.598,12.875-2.703c1.089-1.667,1.611-3.638,1.498-5.623
	C14.984,4.32,15.532,3.745,16,3.102"/>
</svg>
