<svg xmlns="http://www.w3.org/2000/svg" xmlns:xlink="http://www.w3.org/1999/xlink" x="0px" y="0px" width="16px" height="16px" viewBox="0 0 16 16" enable-background="new 0 0 16 16" xml:space="preserve">
<path fill="#FFFFFF" d="M2.4,0h11.2C14.926,0,16,1.075,16,2.4v11.2c0,1.326-1.074,2.4-2.4,2.4H2.4C1.075,16,0,14.926,0,13.6V2.4
	C0,1.075,1.075,0,2.4,0z"/>
<path fill="#6D6E71" d="M16,3.102c-0.551,0.366-1.2,0.561-1.86,0.56c0.706-0.416,1.236-1.078,1.487-1.86
	c-0.584,0.495-1.326,0.774-2.093,0.79c-1.289-1.322-3.411-1.35-4.735-0.056c-0.817,0.799-1.172,1.96-0.938,3.08
	c-2.634-0.14-5.086-1.391-6.744-3.443C0.284,3.677,0.727,5.566,2.14,6.545C1.625,6.552,1.116,6.441,0.65,6.218
	c0.027,1.543,1.101,2.868,2.606,3.212C2.771,9.558,2.26,9.572,1.767,9.478c0.437,1.359,1.688,2.289,3.116,2.321
	C3.413,12.69,1.721,13.159,0,13.15c4.303,2.805,10.065,1.598,12.875-2.703c1.089-1.667,1.611-3.638,1.498-5.623
	C14.985,4.32,15.532,3.745,16,3.102"/>
</svg>
